<svg width="64" height="64" xmlns="http://www.w3.org/2000/svg">

 <g>
  <title>background</title>
  <rect fill="none" id="canvas_background" height="402" width="582" y="-1" x="-1"/>
 </g>
 <g>
  <title>Layer 1</title>
  <path id="svg_1" fill="#ffffff" d="m57.746,31.082l-7.573,-4.044l-16.694,-8.186l0,-4.278c0,-1.104 1.178,-1.587 1.178,-1.587l0.003,-0.01c2.341,-1.062 3.975,-3.396 3.975,-6.134c0,-3.737 -3.028,-6.767 -6.768,-6.767c-2.993,0 -5.504,1.952 -6.388,4.646c-0.006,0.025 -0.308,1.213 0.529,1.213l1.307,0c0.214,-0.019 0.605,-0.135 0.907,-0.711c0,-0.004 0.003,-0.004 0.006,-0.01c0.567,-1.464 1.977,-2.507 3.642,-2.507c2.162,0 3.915,1.753 3.915,3.917c0,1.68 -1.069,3.085 -2.558,3.636l0.012,0.012c0,0 -0.104,0.029 -0.241,0.075c-0.039,0.012 -0.074,0.028 -0.112,0.038c-0.752,0.271 -2.485,1.1 -2.485,3.055l0,0.312l0,5.037l-15.515,7.68l-9.046,4.83c-0.405,0.26 -1.067,0.874 -1.079,2.166l0,0.957c0,0.832 0.672,1.504 1.504,1.504l9.195,0l0,26.494c0,0.83 0.673,1.504 1.504,1.504l30.076,0c0.831,0 1.504,-0.674 1.504,-1.504l0,-26.494l9.191,0c0.831,0 1.504,-0.672 1.504,-1.504l0,-1.004c0.058,-1.405 -1.475,-2.326 -1.493,-2.336zm-12.19,23.57l-27.35,0l0,-3.854l27.35,0l0,3.854zm7.463,-21.805l-1.354,0l-3.122,0l0,-0.502c0,-0.831 -0.673,-1.503 -1.504,-1.503l-30.076,0c-0.831,0 -1.504,0.672 -1.504,1.503l0,0.502l-3.927,0l-0.596,0l-0.079,0c-1.044,0 -0.021,-0.699 -0.003,-0.711c0.532,-0.299 1.178,-0.652 1.835,-0.981l19.238,-9.618l-0.062,0.073l0,-0.001l0.05,0.026l19.091,9.52l0.32,0.191l1.042,0.573c0.006,0.001 0.009,0.004 0.015,0.007l0.635,0.35c0.001,0 0.958,0.571 0.001,0.571z"/>
 </g>
</svg>