<svg width="30" height="30" xmlns="http://www.w3.org/2000/svg">

 <g>
  <title>background</title>
  <rect fill="none" id="canvas_background" height="402" width="582" y="-1" x="-1"/>
 </g>
 <g>
  <title>Layer 1</title>
  <rect fill="#ffffff" id="svg_1" y="15" x="2" width="26" height="10"/>
  <line id="svg_2" fill="none" stroke="#ffffff" stroke-width="2" stroke-linecap="round" stroke-miterlimit="10" y2="15" y1="26" x2="28" x1="28"/>
  <line id="svg_3" fill="none" stroke="#ffffff" stroke-width="2" stroke-linecap="round" stroke-miterlimit="10" y2="15" y1="26" x2="2" x1="2"/>
  <path fill="#ffffff" id="svg_4" d="m25,4l-20,0c-1.105,0 -2,0.895 -2,2l0,7l2,0l0,-2c0,-0.552 0.448,-1 1,-1l7,0c0.552,0 1,0.448 1,1l0,2l2,0l0,-2c0,-0.552 0.448,-1 1,-1l7,0c0.552,0 1,0.448 1,1l0,2l2,0l0,-7c0,-1.105 -0.895,-2 -2,-2z"/>
 </g>
</svg>