<svg width="64" height="64" xmlns="http://www.w3.org/2000/svg">

 <g>
  <title>background</title>
  <rect fill="none" id="canvas_background" height="402" width="582" y="-1" x="-1"/>
 </g>
 <g>
  <title>Layer 1</title>
  <path fill="#ffffff" id="svg_2" d="m1,1l0,1l0,61l1,0c0.617,0 1.215,-0.32 1.972,-0.727c1.059,-0.567 2.377,-1.273 4.028,-1.273c1.059,0 1.844,0.3 2.839,0.68c1.543,0.588 3.462,1.32 7.161,1.32l1,0l0,-1c0,-6.07 -2.364,-11.778 -6.657,-16.071l-0.343,-0.343l0,-3.028c8.646,-5.181 14,-14.576 14,-24.681l0,-2.663c2.714,-1.855 4.835,-4.516 6,-7.643c1.165,3.127 3.286,5.788 6,7.643l0,2.663c0,10.106 5.354,19.5 14,24.681l0,3.028l-0.343,0.343c-4.293,4.293 -6.657,10.001 -6.657,16.071l0,1l1,0c3.699,0 5.618,-0.732 7.161,-1.32c0.995,-0.38 1.78,-0.68 2.839,-0.68c1.651,0 2.969,0.706 4.028,1.273c0.757,0.407 1.355,0.727 1.972,0.727l1,0l0,-61l0,-1l-62,0zm13.981,16.858c-0.191,8.412 -3.174,16.587 -8.462,23.142l-3.519,0l0,-31.271c2.42,4.365 6.821,7.475 11.981,8.129zm-11.981,27.142l0,-2l7,0l0,2l-7,0zm0.028,15.511c-0.009,0.005 -0.019,0.01 -0.028,0.014l0,-13.525l2.485,0l0.632,0.885c2.398,3.358 3.713,7.281 3.855,11.386c-0.594,-0.162 -1.228,-0.271 -1.972,-0.271c-2.153,0 -3.85,0.909 -4.972,1.511zm13.948,0.468c-2.363,-0.101 -3.777,-0.552 -4.976,-0.999c-0.004,-4.67 -1.416,-9.147 -4.072,-12.979l2.659,0l0.343,0.343c3.673,3.673 5.797,8.481 6.046,13.635zm7.024,-43.103c0,9.504 -5.086,18.336 -13.282,23.124l-1.668,0c4.939,-6.646 7.72,-14.713 7.928,-23.001c0.008,0 0.015,0.001 0.022,0.001c2.51,0 4.884,-0.586 7,-1.62l0,1.496zm-7,-1.876c-7.383,0 -13.45,-5.745 -13.965,-13l3.014,0c0.176,1.959 0.863,3.818 2.023,5.427l1.622,-1.17c-0.911,-1.264 -1.447,-2.723 -1.617,-4.257l3.013,0c0.478,2.833 2.942,5 5.91,5c1.002,0 1.995,-0.253 2.871,-0.73l-0.958,-1.756c-0.583,0.318 -1.245,0.486 -1.913,0.486c-1.858,0 -3.411,-1.279 -3.858,-3l7.72,0c-0.129,0.501 -0.344,0.977 -0.661,1.399l1.6,1.201c0.581,-0.775 0.957,-1.661 1.114,-2.6l3.026,0c-0.5,4.493 -4.317,8 -8.941,8c-2.271,0 -4.439,-0.848 -6.106,-2.388l-1.357,1.469c2.038,1.883 4.688,2.919 7.463,2.919c5.728,0 10.442,-4.402 10.949,-10l3.016,0c-0.515,7.255 -6.582,13 -13.965,13zm16.035,-13l3.014,0c0.072,0.798 0.226,1.585 0.469,2.347l1.905,-0.607c-0.179,-0.565 -0.281,-1.15 -0.346,-1.74l3.014,0c0.478,2.833 2.942,5 5.91,5l0,-2c-1.858,0 -3.411,-1.279 -3.858,-3l7.723,0c-0.302,1.164 -1.112,2.155 -2.242,2.657l0.812,1.828c1.854,-0.824 3.14,-2.525 3.472,-4.485l3.022,0c-0.148,1.329 -0.576,2.611 -1.285,3.75l1.698,1.057c0.907,-1.456 1.433,-3.103 1.588,-4.807l3.034,0c-0.515,7.255 -6.582,13 -13.965,13s-13.45,-5.745 -13.965,-13zm6.965,14.876l0,-1.496c2.116,1.034 4.49,1.62 7,1.62c0.007,0 0.014,-0.001 0.022,-0.001c0.208,8.288 2.988,16.355 7.927,23.001l-1.667,0c-8.196,-4.788 -13.282,-13.62 -13.282,-23.124zm14,27.124l0,-2l7,0l0,2l-7,0zm-0.929,2.343l0.343,-0.343l2.659,0c-2.656,3.832 -4.068,8.309 -4.072,12.979c-1.2,0.448 -2.613,0.898 -4.976,0.999c0.248,-5.153 2.372,-9.961 6.046,-13.635zm7.901,13.168c-1.122,-0.602 -2.819,-1.511 -4.972,-1.511c-0.744,0 -1.378,0.109 -1.972,0.271c0.141,-4.105 1.457,-8.028 3.855,-11.386l0.632,-0.885l2.485,0l0,13.525c-0.009,-0.004 -0.019,-0.009 -0.028,-0.014zm0.028,-19.511l-3.519,0c-5.288,-6.555 -8.271,-14.73 -8.462,-23.142c5.16,-0.654 9.562,-3.764 11.981,-8.13l0,31.272z"/>
  <path fill="#ffffff" id="svg_3" d="m55.074,9.471l-1.468,-1.359c-1.698,1.835 -4.106,2.888 -6.606,2.888c-3.22,0 -6.215,-1.737 -7.816,-4.535l-1.735,0.994c1.956,3.418 5.616,5.541 9.551,5.541c3.055,0 5.998,-1.286 8.074,-3.529z"/>
 </g>
</svg>