<svg width="24" height="24" xmlns="http://www.w3.org/2000/svg">

 <g>
  <title>background</title>
  <rect fill="none" id="canvas_background" height="402" width="582" y="-1" x="-1"/>
 </g>
 <g>
  <title>Layer 1</title>
  <path fill="#ffffff" id="svg_1" d="m23,4c-0.6,0 -1,0.4 -1,1l0,10l-4,0l0,-3l2,0l0,-2l-16,0l0,2l2,0l0,3l-4,0l0,-10c0,-0.6 -0.4,-1 -1,-1s-1,0.4 -1,1l0,18c0,0.6 0.4,1 1,1s1,-0.4 1,-1l0,-5l4,0l0,5c0,0.6 0.4,1 1,1s1,-0.4 1,-1l0,-8l8,0l0,8.1c0,0.5 0.4,0.9 0.9,0.9l0.1,0c0.5,0 0.9,-0.4 0.9,-0.9l0,-5.1l4,0l0,5c0,0.6 0.4,1 1,1s1,-0.4 1,-1l0,-18c0.1,-0.6 -0.3,-1 -0.9,-1zm-17,13l-4,0l0,-1l4,0l0,1zm10,-4l-8,0l0,-1l8,0l0,1zm6,4l-4,0l0,-1l4,0l0,1z"/>
 </g>
</svg>